<svg xmlns="http://www.w3.org/2000/svg" version="1.1" xmlns:xlink="http://www.w3.org/1999/xlink" xmlns:svgjs="http://svgjs.dev/svgjs" width="1000" height="1000" viewBox="0 0 1000 1000"><rect width="1000" height="1000" fill="#5e1914"></rect><g transform="matrix(0.7,0,0,0.7,149.57576036056645,424.2747719609052)"><svg viewBox="0 0 396 86" data-background-color="#5e1914" preserveAspectRatio="xMidYMid meet" height="217" width="1000" xmlns="http://www.w3.org/2000/svg" xmlns:xlink="http://www.w3.org/1999/xlink"><defs></defs><g id="tight-bounds" transform="matrix(1,0,0,1,0.24000157540621103,-0.1272573313880514)"><svg viewBox="0 0 395.52 86.2545107398568" height="86.2545107398568" width="395.52"><g><svg viewBox="0 0 395.52 86.2545107398568" height="86.2545107398568" width="395.52"><g><svg viewBox="0 0 395.52 86.2545107398568" height="86.2545107398568" width="395.52"><g><svg viewBox="0 0 395.52 86.2545107398568" height="86.2545107398568" width="395.52"><g><svg viewBox="0 0 395.52 86.2545107398568" height="86.2545107398568" width="395.52"><g transform="matrix(1,0,0,1,0,0)"><svg width="395.52" viewBox="0.10000133514404297 -32.95000076293945 167.60000610351562 33.54999923706055" height="86.2545107398568" data-palette-color="#ffffff"><svg></svg><g class="undefined-text-0" data-fill-palette-color="primary" id="text-0"><path d="M22-32.35l8.85 32.35h-10.15l-0.9-5.35-0.05-0.15-4.9-0.1-4.1 0.2-0.85 5.4h-9.8l9.8-32.35zM15.45-12.75l2.8-0.05-2.2-10.6h-0.6l-2.8 10.6zM67.45-32.35l2.6 32.35h-8.8l-0.25-9.8-0.55-8.15h-0.6l-5.2 14.9h-7.55l-4.3-14.9h-0.6l-0.7 7.2-0.5 10.75h-8.35l3.15-32.35h11.55l0.95 4.6 2.85 11.75h0.6l3.15-11.4 1.15-4.95zM88.7-32.95c4.7 0 8.333 1.39 10.9 4.17 2.567 2.787 3.85 6.713 3.85 11.78v0c0 5.6-1.407 9.933-4.22 13-2.82 3.067-6.813 4.6-11.98 4.6v0c-4.7 0-8.333-1.41-10.9-4.23-2.567-2.813-3.85-6.803-3.85-11.97v0c0-5.533 1.41-9.81 4.23-12.83 2.813-3.013 6.803-4.52 11.97-4.52zM87.8-24.95c-1.3 0-2.283 0.223-2.95 0.67-0.667 0.453-1.14 1.247-1.42 2.38-0.287 1.133-0.43 2.783-0.43 4.95v0c0 2.767 0.15 4.867 0.45 6.3 0.3 1.433 0.81 2.433 1.53 3 0.713 0.567 1.77 0.85 3.17 0.85v0c1.3 0 2.283-0.227 2.95-0.68 0.667-0.447 1.143-1.247 1.43-2.4 0.28-1.147 0.42-2.803 0.42-4.97v0c0-2.733-0.15-4.817-0.45-6.25-0.3-1.433-0.807-2.433-1.52-3-0.72-0.567-1.78-0.85-3.18-0.85zM136.25-32.55l-0.55 22 0.4 10.55h-10.9l-9.1-17.3h-0.6l-0.05 5.6 0.4 11.7h-9.1l0.5-9.5-0.5-22.85h10.9l9.1 17.3h0.6l-0.3-16.95zM158.35-32.9c3.6 0 6.717 0.5 9.35 1.5v0l-2.15 8.85h-0.8c-1.667-0.833-3.107-1.433-4.32-1.8-1.22-0.367-2.547-0.55-3.98-0.55v0c-1.533 0-2.707 0.25-3.52 0.75-0.82 0.5-1.413 1.383-1.78 2.65-0.367 1.267-0.55 3.1-0.55 5.5v0c0 2.433 0.183 4.29 0.55 5.57 0.367 1.287 0.993 2.187 1.88 2.7 0.88 0.52 2.153 0.78 3.82 0.78v0c0.467 0 1.067-0.067 1.8-0.2v0-1.6l-0.15-5.45 9.15-0.65-0.15 4.4v8.85c-3.867 1.467-7.717 2.2-11.55 2.2v0c-5.233 0-9.183-1.393-11.85-4.18-2.667-2.78-4-6.753-4-11.92v0c0-5.667 1.573-9.983 4.72-12.95 3.153-2.967 7.663-4.45 13.53-4.45z" data-fill-palette-color="primary" fill="#ffffff" opacity="1"></path></g></svg></g></svg></g></svg></g></svg></g><g></g></svg></g></svg><rect width="395.52" height="86.2545107398568" fill="none" stroke="none" visibility="hidden"></rect></g></svg></g></svg>